<svg xmlns="http://www.w3.org/2000/svg" width="800" height="520" viewBox="0 0 800 520" role="img" aria-labelledby="title desc">
  <title id="title">Copper Finch hazy IPA synthetic demo label</title>
  <desc id="desc">Synthetic demo label artwork for Copper Finch hazy India pale ale.</desc>
  <rect width="800" height="520" rx="24" fill="#c8d9c5"/>
  <rect x="28" y="28" width="344" height="464" rx="18" fill="#fff4c9" stroke="#8a4d24" stroke-width="6"/>
  <rect x="428" y="28" width="344" height="464" rx="18" fill="#fff4c9" stroke="#8a4d24" stroke-width="6"/>
  <path d="M119 178c40-74 122-74 162 0-35-13-54 21-81 21s-46-34-81-21z" fill="#bd6b31"/>
  <path d="M200 99c-20 28-20 58 0 88 20-30 20-60 0-88z" fill="#587c3c"/>
  <g font-family="Arial, sans-serif" text-anchor="middle" fill="#65391f">
    <text x="200" y="260" font-size="38" font-weight="800">COPPER FINCH</text>
    <text x="200" y="306" font-size="26">HAZY INDIA PALE ALE</text>
    <text x="200" y="364" font-size="19">12 FL. OZ.</text>
    <text x="600" y="82" font-size="17" font-weight="700">COPPER FINCH BREWING</text>
    <text x="600" y="111" font-size="17">RICHMOND, VA</text>
  </g>
  <g font-family="Arial, sans-serif" fill="#2d211c" font-size="13">
    <text x="456" y="190" font-weight="700">GOVERNMENT WARNING:</text>
    <text x="456" y="216">(1) According to the Surgeon General, women</text>
    <text x="456" y="237">should not drink alcoholic beverages during</text>
    <text x="456" y="258">pregnancy because of the risk of birth defects.</text>
    <text x="456" y="287">(2) Consumption of alcoholic beverages impairs</text>
    <text x="456" y="308">your ability to drive a car or operate machinery,</text>
    <text x="456" y="329">and may cause health problems.</text>
    <text x="456" y="448" fill="#765d52">Synthetic demo label • Alcohol content omitted</text>
  </g>
</svg>
